<svg width="23" height="23" viewBox="0 0 23 23" fill="none" xmlns="http://www.w3.org/2000/svg">
<mask id="mask0_259_1043" style="mask-type:alpha" maskUnits="userSpaceOnUse" x="0" y="0" width="23" height="23">
<rect width="23" height="23" fill="#D9D9D9"/>
</mask>
<g mask="url(#mask0_259_1043)">
<path d="M16.2916 16.2917C16.691 16.2917 17.0304 16.1519 17.3099 15.8724C17.5894 15.5929 17.7291 15.2535 17.7291 14.8542C17.7291 14.4549 17.5894 14.1154 17.3099 13.8359C17.0304 13.5564 16.691 13.4167 16.2916 13.4167C15.8923 13.4167 15.5529 13.5564 15.2734 13.8359C14.9939 14.1154 14.8541 14.4549 14.8541 14.8542C14.8541 15.2535 14.9939 15.5929 15.2734 15.8724C15.5529 16.1519 15.8923 16.2917 16.2916 16.2917ZM16.2916 19.1667C16.7868 19.1667 17.242 19.0509 17.6573 18.8193C18.0725 18.5877 18.408 18.2802 18.6635 17.8969C18.3121 17.6892 17.9368 17.5295 17.5375 17.4177C17.1382 17.3059 16.7229 17.25 16.2916 17.25C15.8604 17.25 15.4451 17.3059 15.0458 17.4177C14.6465 17.5295 14.2712 17.6892 13.9198 17.8969C14.1753 18.2802 14.5107 18.5877 14.926 18.8193C15.3413 19.0509 15.7965 19.1667 16.2916 19.1667ZM11.5 21.0833C9.27984 20.5243 7.44703 19.2505 6.00154 17.262C4.55606 15.2734 3.83331 13.0653 3.83331 10.6375V4.79166L11.5 1.91666L19.1666 4.79166V10.2302C18.8632 10.1024 18.5517 9.98662 18.2323 9.8828C17.9128 9.77898 17.5854 9.70311 17.25 9.6552V6.13332L11.5 3.97707L5.74998 6.13332V10.6375C5.74998 11.3882 5.84981 12.1389 6.04946 12.8896C6.24911 13.6403 6.52863 14.355 6.888 15.0338C7.24738 15.7127 7.68262 16.3396 8.19373 16.9146C8.70484 17.4896 9.27185 17.9687 9.89477 18.3521C10.0705 18.8632 10.3021 19.3503 10.5896 19.8135C10.8771 20.2767 11.2045 20.692 11.5719 21.0594C11.5559 21.0594 11.5439 21.0634 11.5359 21.0713C11.5279 21.0793 11.516 21.0833 11.5 21.0833ZM16.2916 21.0833C14.966 21.0833 13.8359 20.6161 12.9015 19.6818C11.9672 18.7474 11.5 17.6174 11.5 16.2917C11.5 14.966 11.9672 13.8359 12.9015 12.9016C13.8359 11.9672 14.966 11.5 16.2916 11.5C17.6173 11.5 18.7474 11.9672 19.6818 12.9016C20.6161 13.8359 21.0833 14.966 21.0833 16.2917C21.0833 17.6174 20.6161 18.7474 19.6818 19.6818C18.7474 20.6161 17.6173 21.0833 16.2916 21.0833Z" fill="black"/>
</g>
</svg>
