<svg width="204" height="71" viewBox="0 0 204 71" fill="none" xmlns="http://www.w3.org/2000/svg">
<path fill-rule="evenodd" clip-rule="evenodd" d="M32 44.3077C35.4715 44.3077 38.2856 41.277 38.2856 37.5385C38.2856 33.7999 35.4715 30.7692 32 30.7692C28.5285 30.7692 25.7144 33.7999 25.7144 37.5385C25.7144 41.277 28.5285 44.3077 32 44.3077ZM30.2857 38.1538C31.5481 38.1538 32.5714 37.0518 32.5714 35.6923C32.5714 34.3328 31.5481 33.2308 30.2857 33.2308C29.0234 33.2308 28 34.3328 28 35.6923C28 37.0518 29.0234 38.1538 30.2857 38.1538Z" fill="#F4AD59"/>
<path fill-rule="evenodd" clip-rule="evenodd" d="M33.8482 0.582383C32.7215 -0.194128 31.2785 -0.194128 30.1518 0.582383L1.58079 20.2747C-0.0140694 21.3739 -0.47951 23.6574 0.541201 25.375C1.56191 27.0925 3.68225 27.5938 5.27711 26.4945L8.00031 24.6176V54.1538C8.00031 59.5917 12.0937 64 17.143 64H46.8569C51.9063 64 55.9997 59.5917 55.9997 54.1538V24.6176L58.7229 26.4945C60.3177 27.5938 62.4381 27.0925 63.4588 25.375C64.4795 23.6574 64.0141 21.3739 62.4192 20.2747L33.8482 0.582383ZM18.8573 39.959C18.8573 32.1647 24.7415 25.8462 32 25.8462C39.2585 25.8462 45.1427 32.1647 45.1427 39.959C45.1427 41.9407 44.7623 43.8271 44.0756 45.5385H45.7141C46.9764 45.5385 47.9998 46.6405 47.9998 48C47.9998 49.3595 46.9764 50.4615 45.7141 50.4615H18.2859C17.0235 50.4615 16.0002 49.3595 16.0002 48C16.0002 46.6405 17.0235 45.5385 18.2859 45.5385L19.9244 45.5385C19.2377 43.8271 18.8573 41.9407 18.8573 39.959Z" fill="#F4AD59"/>
<path d="M85.312 37.056V57H80.236V54.48C79.588 55.344 78.736 56.028 77.68 56.532C76.648 57.012 75.52 57.252 74.296 57.252C72.736 57.252 71.356 56.928 70.156 56.28C68.956 55.608 68.008 54.636 67.312 53.364C66.64 52.068 66.304 50.532 66.304 48.756V37.056H71.344V48.036C71.344 49.62 71.74 50.844 72.532 51.708C73.324 52.548 74.404 52.968 75.772 52.968C77.164 52.968 78.256 52.548 79.048 51.708C79.84 50.844 80.236 49.62 80.236 48.036V37.056H85.312ZM101.337 36.768C103.713 36.768 105.633 37.524 107.097 39.036C108.561 40.524 109.293 42.612 109.293 45.3V57H104.253V45.984C104.253 44.4 103.857 43.188 103.065 42.348C102.273 41.484 101.193 41.052 99.8248 41.052C98.4328 41.052 97.3288 41.484 96.5128 42.348C95.7208 43.188 95.3248 44.4 95.3248 45.984V57H90.2848V37.056H95.3248V39.54C95.9968 38.676 96.8488 38.004 97.8808 37.524C98.9368 37.02 100.089 36.768 101.337 36.768ZM116.642 34.68C115.754 34.68 115.01 34.404 114.41 33.852C113.834 33.276 113.546 32.568 113.546 31.728C113.546 30.888 113.834 30.192 114.41 29.64C115.01 29.064 115.754 28.776 116.642 28.776C117.53 28.776 118.262 29.064 118.838 29.64C119.438 30.192 119.738 30.888 119.738 31.728C119.738 32.568 119.438 33.276 118.838 33.852C118.262 34.404 117.53 34.68 116.642 34.68ZM119.126 37.056V57H114.086V37.056H119.126ZM135.769 57.252C133.417 57.252 131.257 56.7 129.289 55.596C127.321 54.492 125.761 52.968 124.609 51.024C123.457 49.056 122.881 46.836 122.881 44.364C122.881 41.916 123.457 39.72 124.609 37.776C125.761 35.808 127.321 34.272 129.289 33.168C131.257 32.064 133.417 31.512 135.769 31.512C138.145 31.512 140.305 32.064 142.249 33.168C144.217 34.272 145.765 35.808 146.893 37.776C148.045 39.72 148.621 41.916 148.621 44.364C148.621 46.836 148.045 49.056 146.893 51.024C145.765 52.968 144.217 54.492 142.249 55.596C140.281 56.7 138.121 57.252 135.769 57.252ZM135.769 52.752C137.281 52.752 138.613 52.416 139.765 51.744C140.917 51.048 141.817 50.064 142.465 48.792C143.113 47.52 143.437 46.044 143.437 44.364C143.437 42.684 143.113 41.22 142.465 39.972C141.817 38.7 140.917 37.728 139.765 37.056C138.613 36.384 137.281 36.048 135.769 36.048C134.257 36.048 132.913 36.384 131.737 37.056C130.585 37.728 129.685 38.7 129.037 39.972C128.389 41.22 128.065 42.684 128.065 44.364C128.065 46.044 128.389 47.52 129.037 48.792C129.685 50.064 130.585 51.048 131.737 51.744C132.913 52.416 134.257 52.752 135.769 52.752ZM173.863 57H168.823L157.411 39.756V57H152.371V31.836H157.411L168.823 49.116V31.836H173.863V57ZM196.339 39.432C195.763 38.376 194.971 37.572 193.963 37.02C192.955 36.468 191.779 36.192 190.435 36.192C188.947 36.192 187.627 36.528 186.475 37.2C185.323 37.872 184.423 38.832 183.775 40.08C183.127 41.328 182.803 42.768 182.803 44.4C182.803 46.08 183.127 47.544 183.775 48.792C184.447 50.04 185.371 51 186.547 51.672C187.723 52.344 189.091 52.68 190.651 52.68C192.571 52.68 194.143 52.176 195.367 51.168C196.591 50.136 197.395 48.708 197.779 46.884H189.139V43.032H202.747V47.424C202.411 49.176 201.691 50.796 200.587 52.284C199.483 53.772 198.055 54.972 196.303 55.884C194.575 56.772 192.631 57.216 190.471 57.216C188.047 57.216 185.851 56.676 183.883 55.596C181.939 54.492 180.403 52.968 179.275 51.024C178.171 49.08 177.619 46.872 177.619 44.4C177.619 41.928 178.171 39.72 179.275 37.776C180.403 35.808 181.939 34.284 183.883 33.204C185.851 32.1 188.035 31.548 190.435 31.548C193.267 31.548 195.727 32.244 197.815 33.636C199.903 35.004 201.343 36.936 202.135 39.432H196.339Z" fill="black"/>
</svg>
