<svg width="317" height="69" viewBox="0 0 305 69" fill="none" xmlns="http://www.w3.org/2000/svg">
<path fill-rule="evenodd" clip-rule="evenodd" d="M1 32.5C1 15.103 15.103 1 32.5 1C49.897 1 64 15.108 64 32.5111C64 49.5145 50.5373 63.3725 33.6932 64L34.3727 56.473L34.3862 56.472L34.5901 54.3568C34.6008 54.2285 34.6131 54.1006 34.627 53.973L34.6335 53.9057L34.6345 53.9059C34.9251 51.3414 35.8483 48.9274 37.3235 47.3022C37.7982 46.7792 38.3004 46.3706 38.8166 46.0729L40.2212 45.1155H40.2234L45.6657 41.3272C46.3031 40.8835 47.0904 40.815 47.7649 41.0749C47.9502 41.1463 48.127 41.2424 48.2898 41.3624C48.4825 41.5044 48.6557 41.6798 48.8003 41.887L49.6744 43.1392C50.3857 44.1582 50.1356 45.5598 49.1157 46.2697L43.9751 49.848C43.7799 50.1444 43.7714 50.5416 43.9845 50.8524L44.1083 51.0331C44.3281 51.3538 44.7186 51.4876 45.0745 51.3961L51.5623 47.1419C51.6599 47.0147 51.7564 46.8866 51.8516 46.7574L53.0228 27.8642L55.9414 27.2202C53.5321 16.4921 43.9517 8.47718 32.5 8.47718L32.5 8.4746C21.0483 8.4746 11.4679 16.4867 9.0586 27.2111L11.9772 27.8548L13.1484 46.7413C13.2436 46.8704 13.34 46.9985 13.4377 47.1256L19.9255 51.3783C20.2814 51.4697 20.6719 51.336 20.8918 51.0154L21.0154 50.835C21.2285 50.5242 21.22 50.127 21.0247 49.8306L15.8847 46.2539C14.8647 45.5442 14.6144 44.1428 15.3258 43.124L16.1995 41.8729C16.7714 41.0538 17.7907 40.7312 18.6984 41.005C18.9198 41.0718 19.1345 41.1741 19.3345 41.3132L24.7765 45.0999H24.779L26.1843 46.0572C26.7005 46.3548 27.2018 46.7631 27.6765 47.2858C29.1517 48.9104 30.0749 51.3236 30.3655 53.8873L30.3665 53.887L30.3729 53.954C30.3869 54.0817 30.3992 54.2098 30.41 54.3382L30.6138 56.4525L30.6273 56.4536L31.3068 63.9778C14.4627 63.3505 1 49.4975 1 32.5Z" fill="#F4AD59" stroke="#F4AD59" stroke-width="0.5"/>
<g filter="url(#filter0_d_34_7)">
<ellipse cx="32.5" cy="25.78" rx="12.6" ry="12.6" fill="#555C82"/>
</g>
<path fill-rule="evenodd" clip-rule="evenodd" d="M33.9213 16.2512C33.6568 16.688 34.6291 17.6942 36.2814 18.8104L36.2834 18.8069L36.3551 18.8493L36.3563 18.8474C36.5375 18.9535 36.7141 19.0661 36.8857 19.1847H33.7251H31.2642H28.0596C28.2304 19.0666 28.4062 18.9546 28.5866 18.8488L28.5869 18.8493L28.6586 18.8069L28.6606 18.8104C30.313 17.6942 31.2853 16.688 31.0208 16.2512C30.7584 15.8177 29.3459 16.0572 27.4799 16.7722L27.4801 16.7726L27.3871 16.8242L27.3872 16.8244C26.3041 17.4491 25.3482 18.2491 24.5596 19.1847H21.6356C21.1697 19.9551 20.7842 20.7792 20.4906 21.6456H23.0198C22.6168 22.5565 22.3525 23.518 22.2347 24.5003H19.9547C19.9185 24.8892 19.9 25.2832 19.9 25.6815C19.9 26.1135 19.9218 26.5404 19.9642 26.9612H22.247C22.3844 28.017 22.691 29.0464 23.1561 30.0128H20.5891C20.8907 30.8801 21.2846 31.7043 21.759 32.4737H24.8182C25.605 33.3392 26.5398 34.0762 27.5868 34.6511L27.6534 34.6924L27.6933 34.7122L27.6933 34.7122L27.7191 34.7249L27.719 34.7251C29.5641 35.4276 30.9573 35.6602 31.2178 35.2301C31.4823 34.7933 30.5102 33.7873 28.8582 32.6713L28.8583 32.6713L28.813 32.6432L28.8107 32.6469L28.8128 32.6435L28.799 32.6349L28.7991 32.6347C28.7042 32.5828 28.6106 32.5291 28.5182 32.4737H36.4271C36.3301 32.5319 36.2317 32.5881 36.132 32.6425L36.1399 32.6558L36.0902 32.6921L36.0904 32.6923L36.0607 32.7139C34.4228 33.8049 33.4611 34.7866 33.7244 35.214C33.9849 35.6369 35.3783 35.4083 37.2236 34.7176L37.2235 34.7173L37.2493 34.7048L37.2493 34.7048L37.2888 34.6856L37.3294 34.6608L37.3322 34.6655L37.3323 34.6655L37.3323 34.6655C38.3899 34.0886 39.3338 33.3464 40.1272 32.4737H43.2707C43.745 31.7043 44.1389 30.8801 44.4405 30.0128H41.7893C42.2545 29.0464 42.5611 28.017 42.6985 26.9612H45.0358C45.0783 26.5404 45.1 26.1135 45.1 25.6815C45.1 25.2832 45.0815 24.8892 45.0454 24.5003H42.7108C42.5929 23.518 42.3286 22.5565 41.9257 21.6456H44.4397C44.1461 20.7792 43.7606 19.9551 43.2947 19.1847H40.3858C39.5962 18.2478 38.6388 17.4468 37.5538 16.8218L37.5538 16.8218L37.5537 16.8218L37.5529 16.8231L37.4618 16.7726L37.462 16.7722C35.5961 16.0572 34.1837 15.8177 33.9213 16.2512ZM39.216 21.6456H33.7251V24.5003H40.2628C40.1147 23.5483 39.7883 22.6261 39.2957 21.7794C39.2696 21.7346 39.243 21.6899 39.216 21.6456ZM40.2468 26.9612H33.7251V30.0128H39.0273C39.0855 29.926 39.142 29.8381 39.1967 29.749C39.7264 28.8875 40.0813 27.9417 40.2468 26.9612ZM37.4009 16.879L37.4003 16.8787L37.4191 16.8462L37.4009 16.879ZM25.6497 21.7794C25.6758 21.7346 25.7023 21.69 25.7293 21.6456H31.2642V24.5003H24.6826C24.8306 23.5483 25.157 22.6261 25.6497 21.7794ZM25.7486 29.7491C25.2189 28.8876 24.864 27.9417 24.6985 26.9612H31.2642V30.0128H25.9181C25.8599 29.926 25.8034 29.8381 25.7486 29.7491ZM27.541 16.879L27.5416 16.8787L27.5231 16.8468L27.541 16.879ZM28.8232 32.7303L28.822 32.7296L28.8449 32.6928L28.8232 32.7303Z" fill="white"/>
<path d="M97.312 35.056V55H92.236V52.48C91.588 53.344 90.736 54.028 89.68 54.532C88.648 55.012 87.52 55.252 86.296 55.252C84.736 55.252 83.356 54.928 82.156 54.28C80.956 53.608 80.008 52.636 79.312 51.364C78.64 50.068 78.304 48.532 78.304 46.756V35.056H83.344V46.036C83.344 47.62 83.74 48.844 84.532 49.708C85.324 50.548 86.404 50.968 87.772 50.968C89.164 50.968 90.256 50.548 91.048 49.708C91.84 48.844 92.236 47.62 92.236 46.036V35.056H97.312ZM113.337 34.768C115.713 34.768 117.633 35.524 119.097 37.036C120.561 38.524 121.293 40.612 121.293 43.3V55H116.253V43.984C116.253 42.4 115.857 41.188 115.065 40.348C114.273 39.484 113.193 39.052 111.825 39.052C110.433 39.052 109.329 39.484 108.513 40.348C107.721 41.188 107.325 42.4 107.325 43.984V55H102.285V35.056H107.325V37.54C107.997 36.676 108.849 36.004 109.881 35.524C110.937 35.02 112.089 34.768 113.337 34.768ZM128.642 32.68C127.754 32.68 127.01 32.404 126.41 31.852C125.834 31.276 125.546 30.568 125.546 29.728C125.546 28.888 125.834 28.192 126.41 27.64C127.01 27.064 127.754 26.776 128.642 26.776C129.53 26.776 130.262 27.064 130.838 27.64C131.438 28.192 131.738 28.888 131.738 29.728C131.738 30.568 131.438 31.276 130.838 31.852C130.262 32.404 129.53 32.68 128.642 32.68ZM131.126 35.056V55H126.086V35.056H131.126ZM147.769 55.252C145.417 55.252 143.257 54.7 141.289 53.596C139.321 52.492 137.761 50.968 136.609 49.024C135.457 47.056 134.881 44.836 134.881 42.364C134.881 39.916 135.457 37.72 136.609 35.776C137.761 33.808 139.321 32.272 141.289 31.168C143.257 30.064 145.417 29.512 147.769 29.512C150.145 29.512 152.305 30.064 154.249 31.168C156.217 32.272 157.765 33.808 158.893 35.776C160.045 37.72 160.621 39.916 160.621 42.364C160.621 44.836 160.045 47.056 158.893 49.024C157.765 50.968 156.217 52.492 154.249 53.596C152.281 54.7 150.121 55.252 147.769 55.252ZM147.769 50.752C149.281 50.752 150.613 50.416 151.765 49.744C152.917 49.048 153.817 48.064 154.465 46.792C155.113 45.52 155.437 44.044 155.437 42.364C155.437 40.684 155.113 39.22 154.465 37.972C153.817 36.7 152.917 35.728 151.765 35.056C150.613 34.384 149.281 34.048 147.769 34.048C146.257 34.048 144.913 34.384 143.737 35.056C142.585 35.728 141.685 36.7 141.037 37.972C140.389 39.22 140.065 40.684 140.065 42.364C140.065 44.044 140.389 45.52 141.037 46.792C141.685 48.064 142.585 49.048 143.737 49.744C144.913 50.416 146.257 50.752 147.769 50.752ZM185.863 55H180.823L169.411 37.756V55H164.371V29.836H169.411L180.823 47.116V29.836H185.863V55ZM208.339 37.432C207.763 36.376 206.971 35.572 205.963 35.02C204.955 34.468 203.779 34.192 202.435 34.192C200.947 34.192 199.627 34.528 198.475 35.2C197.323 35.872 196.423 36.832 195.775 38.08C195.127 39.328 194.803 40.768 194.803 42.4C194.803 44.08 195.127 45.544 195.775 46.792C196.447 48.04 197.371 49 198.547 49.672C199.723 50.344 201.091 50.68 202.651 50.68C204.571 50.68 206.143 50.176 207.367 49.168C208.591 48.136 209.395 46.708 209.779 44.884H201.139V41.032H214.747V45.424C214.411 47.176 213.691 48.796 212.587 50.284C211.483 51.772 210.055 52.972 208.303 53.884C206.575 54.772 204.631 55.216 202.471 55.216C200.047 55.216 197.851 54.676 195.883 53.596C193.939 52.492 192.403 50.968 191.275 49.024C190.171 47.08 189.619 44.872 189.619 42.4C189.619 39.928 190.171 37.72 191.275 35.776C192.403 33.808 193.939 32.284 195.883 31.204C197.851 30.1 200.035 29.548 202.435 29.548C205.267 29.548 207.727 30.244 209.815 31.636C211.903 33.004 213.343 34.936 214.135 37.432H208.339ZM225.362 48.304C225.362 46.96 225.626 45.768 226.154 44.728C226.698 43.688 227.426 42.888 228.338 42.328C229.266 41.768 230.298 41.488 231.434 41.488C232.426 41.488 233.29 41.688 234.026 42.088C234.778 42.488 235.378 42.992 235.826 43.6V41.704H239.21V55H235.826V53.056C235.394 53.68 234.794 54.2 234.026 54.616C233.274 55.016 232.402 55.216 231.41 55.216C230.29 55.216 229.266 54.928 228.338 54.352C227.426 53.776 226.698 52.968 226.154 51.928C225.626 50.872 225.362 49.664 225.362 48.304ZM235.826 48.352C235.826 47.536 235.666 46.84 235.346 46.264C235.026 45.672 234.594 45.224 234.05 44.92C233.506 44.6 232.922 44.44 232.298 44.44C231.674 44.44 231.098 44.592 230.57 44.896C230.042 45.2 229.61 45.648 229.274 46.24C228.954 46.816 228.794 47.504 228.794 48.304C228.794 49.104 228.954 49.808 229.274 50.416C229.61 51.008 230.042 51.464 230.57 51.784C231.114 52.104 231.69 52.264 232.298 52.264C232.922 52.264 233.506 52.112 234.05 51.808C234.594 51.488 235.026 51.04 235.346 50.464C235.666 49.872 235.826 49.168 235.826 48.352ZM241.628 48.304C241.628 46.96 241.892 45.768 242.42 44.728C242.964 43.688 243.7 42.888 244.628 42.328C245.556 41.768 246.588 41.488 247.724 41.488C248.588 41.488 249.412 41.68 250.196 42.064C250.98 42.432 251.604 42.928 252.068 43.552V37.24H255.476V55H252.068V53.032C251.652 53.688 251.068 54.216 250.316 54.616C249.564 55.016 248.692 55.216 247.7 55.216C246.58 55.216 245.556 54.928 244.628 54.352C243.7 53.776 242.964 52.968 242.42 51.928C241.892 50.872 241.628 49.664 241.628 48.304ZM252.092 48.352C252.092 47.536 251.932 46.84 251.612 46.264C251.292 45.672 250.86 45.224 250.316 44.92C249.772 44.6 249.188 44.44 248.564 44.44C247.94 44.44 247.364 44.592 246.836 44.896C246.308 45.2 245.876 45.648 245.54 46.24C245.22 46.816 245.06 47.504 245.06 48.304C245.06 49.104 245.22 49.808 245.54 50.416C245.876 51.008 246.308 51.464 246.836 51.784C247.38 52.104 247.956 52.264 248.564 52.264C249.188 52.264 249.772 52.112 250.316 51.808C250.86 51.488 251.292 51.04 251.612 50.464C251.932 49.872 252.092 49.168 252.092 48.352ZM275.27 41.512C276.902 41.512 278.214 42.016 279.206 43.024C280.214 44.016 280.718 45.408 280.718 47.2V55H277.358V47.656C277.358 46.616 277.094 45.824 276.566 45.28C276.038 44.72 275.318 44.44 274.406 44.44C273.494 44.44 272.766 44.72 272.222 45.28C271.694 45.824 271.43 46.616 271.43 47.656V55H268.07V47.656C268.07 46.616 267.806 45.824 267.278 45.28C266.75 44.72 266.03 44.44 265.118 44.44C264.19 44.44 263.454 44.72 262.91 45.28C262.382 45.824 262.118 46.616 262.118 47.656V55H258.758V41.704H262.118V43.312C262.55 42.752 263.102 42.312 263.774 41.992C264.462 41.672 265.214 41.512 266.03 41.512C267.07 41.512 267.998 41.736 268.814 42.184C269.63 42.616 270.262 43.24 270.71 44.056C271.142 43.288 271.766 42.672 272.582 42.208C273.414 41.744 274.31 41.512 275.27 41.512ZM285.61 40.12C285.018 40.12 284.522 39.936 284.122 39.568C283.738 39.184 283.546 38.712 283.546 38.152C283.546 37.592 283.738 37.128 284.122 36.76C284.522 36.376 285.018 36.184 285.61 36.184C286.202 36.184 286.69 36.376 287.074 36.76C287.474 37.128 287.674 37.592 287.674 38.152C287.674 38.712 287.474 39.184 287.074 39.568C286.69 39.936 286.202 40.12 285.61 40.12ZM287.266 41.704V55H283.906V41.704H287.266ZM297.954 41.512C299.538 41.512 300.818 42.016 301.794 43.024C302.77 44.016 303.258 45.408 303.258 47.2V55H299.898V47.656C299.898 46.6 299.634 45.792 299.106 45.232C298.578 44.656 297.858 44.368 296.946 44.368C296.018 44.368 295.282 44.656 294.738 45.232C294.21 45.792 293.946 46.6 293.946 47.656V55H290.586V41.704H293.946V43.36C294.394 42.784 294.962 42.336 295.65 42.016C296.354 41.68 297.122 41.512 297.954 41.512Z" fill="black"/>
<defs>
<filter id="filter0_d_34_7" x="15.9" y="13.18" width="33.2" height="33.2" filterUnits="userSpaceOnUse" color-interpolation-filters="sRGB">
<feFlood flood-opacity="0" result="BackgroundImageFix"/>
<feColorMatrix in="SourceAlpha" type="matrix" values="0 0 0 0 0 0 0 0 0 0 0 0 0 0 0 0 0 0 127 0" result="hardAlpha"/>
<feOffset dy="4"/>
<feGaussianBlur stdDeviation="2"/>
<feComposite in2="hardAlpha" operator="out"/>
<feColorMatrix type="matrix" values="0 0 0 0 0 0 0 0 0 0 0 0 0 0 0 0 0 0 0.25 0"/>
<feBlend mode="normal" in2="BackgroundImageFix" result="effect1_dropShadow_34_7"/>
<feBlend mode="normal" in="SourceGraphic" in2="effect1_dropShadow_34_7" result="shape"/>
</filter>
</defs>
</svg>
