<svg width="216" height="72" viewBox="0 0 216 72" fill="none" xmlns="http://www.w3.org/2000/svg">
<path d="M97.312 35.056V55H92.236V52.48C91.588 53.344 90.736 54.028 89.68 54.532C88.648 55.012 87.52 55.252 86.296 55.252C84.736 55.252 83.356 54.928 82.156 54.28C80.956 53.608 80.008 52.636 79.312 51.364C78.64 50.068 78.304 48.532 78.304 46.756V35.056H83.344V46.036C83.344 47.62 83.74 48.844 84.532 49.708C85.324 50.548 86.404 50.968 87.772 50.968C89.164 50.968 90.256 50.548 91.048 49.708C91.84 48.844 92.236 47.62 92.236 46.036V35.056H97.312ZM113.337 34.768C115.713 34.768 117.633 35.524 119.097 37.036C120.561 38.524 121.293 40.612 121.293 43.3V55H116.253V43.984C116.253 42.4 115.857 41.188 115.065 40.348C114.273 39.484 113.193 39.052 111.825 39.052C110.433 39.052 109.329 39.484 108.513 40.348C107.721 41.188 107.325 42.4 107.325 43.984V55H102.285V35.056H107.325V37.54C107.997 36.676 108.849 36.004 109.881 35.524C110.937 35.02 112.089 34.768 113.337 34.768ZM128.642 32.68C127.754 32.68 127.01 32.404 126.41 31.852C125.834 31.276 125.546 30.568 125.546 29.728C125.546 28.888 125.834 28.192 126.41 27.64C127.01 27.064 127.754 26.776 128.642 26.776C129.53 26.776 130.262 27.064 130.838 27.64C131.438 28.192 131.738 28.888 131.738 29.728C131.738 30.568 131.438 31.276 130.838 31.852C130.262 32.404 129.53 32.68 128.642 32.68ZM131.126 35.056V55H126.086V35.056H131.126ZM147.769 55.252C145.417 55.252 143.257 54.7 141.289 53.596C139.321 52.492 137.761 50.968 136.609 49.024C135.457 47.056 134.881 44.836 134.881 42.364C134.881 39.916 135.457 37.72 136.609 35.776C137.761 33.808 139.321 32.272 141.289 31.168C143.257 30.064 145.417 29.512 147.769 29.512C150.145 29.512 152.305 30.064 154.249 31.168C156.217 32.272 157.765 33.808 158.893 35.776C160.045 37.72 160.621 39.916 160.621 42.364C160.621 44.836 160.045 47.056 158.893 49.024C157.765 50.968 156.217 52.492 154.249 53.596C152.281 54.7 150.121 55.252 147.769 55.252ZM147.769 50.752C149.281 50.752 150.613 50.416 151.765 49.744C152.917 49.048 153.817 48.064 154.465 46.792C155.113 45.52 155.437 44.044 155.437 42.364C155.437 40.684 155.113 39.22 154.465 37.972C153.817 36.7 152.917 35.728 151.765 35.056C150.613 34.384 149.281 34.048 147.769 34.048C146.257 34.048 144.913 34.384 143.737 35.056C142.585 35.728 141.685 36.7 141.037 37.972C140.389 39.22 140.065 40.684 140.065 42.364C140.065 44.044 140.389 45.52 141.037 46.792C141.685 48.064 142.585 49.048 143.737 49.744C144.913 50.416 146.257 50.752 147.769 50.752ZM185.863 55H180.823L169.411 37.756V55H164.371V29.836H169.411L180.823 47.116V29.836H185.863V55ZM208.339 37.432C207.763 36.376 206.971 35.572 205.963 35.02C204.955 34.468 203.779 34.192 202.435 34.192C200.947 34.192 199.627 34.528 198.475 35.2C197.323 35.872 196.423 36.832 195.775 38.08C195.127 39.328 194.803 40.768 194.803 42.4C194.803 44.08 195.127 45.544 195.775 46.792C196.447 48.04 197.371 49 198.547 49.672C199.723 50.344 201.091 50.68 202.651 50.68C204.571 50.68 206.143 50.176 207.367 49.168C208.591 48.136 209.395 46.708 209.779 44.884H201.139V41.032H214.747V45.424C214.411 47.176 213.691 48.796 212.587 50.284C211.483 51.772 210.055 52.972 208.303 53.884C206.575 54.772 204.631 55.216 202.471 55.216C200.047 55.216 197.851 54.676 195.883 53.596C193.939 52.492 192.403 50.968 191.275 49.024C190.171 47.08 189.619 44.872 189.619 42.4C189.619 39.928 190.171 37.72 191.275 35.776C192.403 33.808 193.939 32.284 195.883 31.204C197.851 30.1 200.035 29.548 202.435 29.548C205.267 29.548 207.727 30.244 209.815 31.636C211.903 33.004 213.343 34.936 214.135 37.432H208.339Z" fill="black"/>
<path fill-rule="evenodd" clip-rule="evenodd" d="M1 36C1 16.67 16.67 1 36 1C55.33 1 71 16.6756 71 36.0123C71 54.905 56.0414 70.3028 37.3258 71L38.0808 62.6367L38.0958 62.6355L38.3223 60.2853C38.3342 60.1428 38.3479 60.0006 38.3634 59.8588L38.3706 59.7841L38.3717 59.7844C38.6945 56.9348 39.7203 54.2526 41.3594 52.4469C41.8869 51.8658 42.4449 51.4118 43.0185 51.081L44.5791 50.0172H44.5815L50.6286 45.808C51.3368 45.315 52.2116 45.2389 52.9609 45.5277C53.1669 45.607 53.3633 45.7138 53.5442 45.8471C53.7584 46.0049 53.9508 46.1998 54.1114 46.43L55.0827 47.8214C55.873 48.9536 55.5951 50.5109 54.4619 51.2996L48.7501 55.2755C48.5333 55.6049 48.5238 56.0462 48.7605 56.3916L48.8982 56.5924C49.1424 56.9487 49.5763 57.0973 49.9716 56.9957L57.1803 52.2688C57.2888 52.1275 57.396 51.9851 57.5017 51.8415L58.8031 30.8491L62.046 30.1336C59.369 18.2134 48.7241 9.30798 36 9.30798L36 9.30511C23.2759 9.30511 12.631 18.2074 9.954 30.1234L13.1969 30.8387L14.4983 51.8237C14.604 51.9671 14.7111 52.1095 14.8196 52.2507L22.0283 56.9759C22.4237 57.0775 22.8577 56.9289 23.102 56.5726L23.2394 56.3723C23.4762 56.0269 23.4667 55.5856 23.2497 55.2562L17.5385 51.2822C16.4052 50.4935 16.1271 48.9365 16.9176 47.8044L17.8883 46.4143C18.5238 45.5042 19.6564 45.1458 20.6649 45.4501C20.9109 45.5242 21.1494 45.6378 21.3716 45.7924L27.4184 49.9999H27.4211L28.9826 51.0635C29.5562 51.3942 30.1131 51.8479 30.6406 52.4287C32.2797 54.2338 33.3055 56.9151 33.6283 59.7636L33.6294 59.7634L33.6366 59.8378C33.6521 59.9797 33.6658 60.122 33.6777 60.2646L33.9042 62.6139L33.9192 62.6151L34.6742 70.9754C15.9586 70.2784 1 54.8861 1 36Z" fill="#F4AD59" stroke="#F4AD59" stroke-width="0.5"/>
<g filter="url(#filter0_d_27_15)">
<ellipse cx="36" cy="28.5333" rx="14" ry="14" fill="#555C82"/>
</g>
<path fill-rule="evenodd" clip-rule="evenodd" d="M34.3565 17.9458C34.6504 18.4311 33.57 19.5491 31.734 20.7893L31.7318 20.7855L31.6522 20.8326L31.6518 20.832C31.4514 20.9495 31.2561 21.074 31.0663 21.2052L34.6268 21.2052H37.3612L40.8731 21.2052C40.6824 21.0734 40.4861 20.9483 40.2847 20.8303L40.2833 20.8326L40.2037 20.7855L40.2014 20.7893C38.3656 19.5491 37.2853 18.4311 37.5791 17.9458C37.8708 17.4642 39.44 17.7302 41.5133 18.5247L41.513 18.5251L41.6144 18.5813L41.6153 18.5798C41.9723 18.7854 42.3168 19.0082 42.6478 19.247C43.3555 19.7576 44.0011 20.3413 44.5732 20.9868C44.6371 21.0588 44.7 21.1317 44.762 21.2052L47.9941 21.2052C48.5118 22.0612 48.9401 22.9769 49.2664 23.9396H46.473C46.9207 24.9517 47.2143 26.02 47.3453 27.1115H49.9393C49.9795 27.5436 50 27.9814 50 28.424C50 28.904 49.9758 29.3783 49.9287 29.8458H47.3316C47.179 31.0189 46.8383 32.1626 46.3215 33.2365H49.2672C48.9321 34.2001 48.4944 35.1159 47.9674 35.9708H44.4747C43.5931 36.9405 42.5444 37.7651 41.3692 38.4062L41.3692 38.4062L41.3661 38.401L41.3217 38.428L41.277 38.4498L41.2483 38.4637L41.2485 38.464C39.1981 39.2314 37.6499 39.4855 37.3604 39.0156C37.0679 38.5407 38.1366 37.4498 39.9567 36.2375L39.9894 36.2137L39.9892 36.2134L40.0444 36.1731L40.0443 36.173L40.0357 36.1584C40.0753 36.1368 40.1148 36.1149 40.154 36.0928L40.1542 36.0926C40.2246 36.0529 40.2944 36.0123 40.3636 35.9708H31.5758C31.6784 36.0323 31.7825 36.092 31.8878 36.1497L31.8877 36.1499L31.9031 36.1595L31.9011 36.1627L31.9034 36.1591L31.9536 36.1903L31.9536 36.1904C33.7891 37.4304 34.8692 38.5481 34.5753 39.0334C34.2859 39.5114 32.7379 39.2529 30.6877 38.4723L30.6878 38.4721L30.6592 38.4579L30.6592 38.458L30.6149 38.436L30.5409 38.3901C29.3776 37.7514 28.3389 36.9324 27.4647 35.9708H24.0655C23.5384 35.1159 23.1008 34.2001 22.7656 33.2365H25.6179C25.1011 32.1626 24.7604 31.0189 24.6078 29.8458H22.0713C22.0242 29.3783 22 28.904 22 28.424C22 27.9814 22.0205 27.5436 22.0607 27.1115H24.5941C24.725 26.02 25.0187 24.9517 25.4664 23.9396H22.6562C22.9825 22.9769 23.4108 22.0612 23.9285 21.2052L27.1774 21.2052C28.0536 20.1656 29.1157 19.2767 30.3191 18.5826L30.319 18.5825L30.4224 18.5251L30.4221 18.5247C32.4955 17.7302 34.0648 17.4642 34.3565 17.9458ZM43.2527 33.2365C43.3173 33.1401 43.3801 33.0424 43.4409 32.9434C44.0295 31.9862 44.4238 30.9352 44.6077 29.8458H37.3612V33.2365H43.2527ZM44.6254 27.1115C44.4609 26.0537 44.0982 25.029 43.5508 24.0883C43.5218 24.0384 43.4923 23.9888 43.4624 23.9396H37.3612V27.1115H44.6254ZM28.3885 24.0883C28.4175 24.0384 28.447 23.9888 28.477 23.9396H34.6268V27.1115H27.314C27.4785 26.0537 27.8411 25.029 28.3885 24.0883ZM28.4985 32.9434C27.9099 31.9862 27.5156 30.9352 27.3317 29.8458H34.6268V33.2365H28.6867C28.6221 33.1401 28.5593 33.0424 28.4985 32.9434ZM30.49 18.6434L30.4907 18.643L30.4703 18.6079L30.49 18.6434ZM31.9146 36.2559L31.9134 36.2551L31.9387 36.2143L31.9146 36.2559ZM41.4454 18.6434L41.4447 18.643L41.4654 18.6073L41.4454 18.6434Z" fill="white"/>
<defs>
<filter id="filter0_d_27_15" x="18" y="14.5333" width="36" height="36" filterUnits="userSpaceOnUse" color-interpolation-filters="sRGB">
<feFlood flood-opacity="0" result="BackgroundImageFix"/>
<feColorMatrix in="SourceAlpha" type="matrix" values="0 0 0 0 0 0 0 0 0 0 0 0 0 0 0 0 0 0 127 0" result="hardAlpha"/>
<feOffset dy="4"/>
<feGaussianBlur stdDeviation="2"/>
<feComposite in2="hardAlpha" operator="out"/>
<feColorMatrix type="matrix" values="0 0 0 0 0 0 0 0 0 0 0 0 0 0 0 0 0 0 0.25 0"/>
<feBlend mode="normal" in2="BackgroundImageFix" result="effect1_dropShadow_27_15"/>
<feBlend mode="normal" in="SourceGraphic" in2="effect1_dropShadow_27_15" result="shape"/>
</filter>
</defs>
</svg>
