<svg width="50" height="50" viewBox="0 0 50 50" fill="none" xmlns="http://www.w3.org/2000/svg">
<rect width="50" height="50" rx="15" fill="#D9D9D9"/>
<path fill-rule="evenodd" clip-rule="evenodd" d="M40.0264 15H42C42.5523 15 43 14.5523 43 14V12.0502L40.0264 15ZM37.1433 8H37C36.4477 8 36 8.44772 36 9V9.13421L37.1433 8Z" fill="#505050"/>
<path fill-rule="evenodd" clip-rule="evenodd" d="M33 12.1102V9C33 8.44775 32.5522 8 32 8H13.0657L20.0098 15H30.0869L33 12.1102ZM8 14V12.833L10.1497 15H9C8.44775 15 8 14.5522 8 14Z" fill="#505050"/>
<rect x="36" y="21" width="7" height="7" rx="1" fill="#505050"/>
<path fill-rule="evenodd" clip-rule="evenodd" d="M43 35V38.1754L38.8579 34H42C42.5522 34 43 34.4478 43 35Z" fill="#505050"/>
<path fill-rule="evenodd" clip-rule="evenodd" d="M13.817 41H32C32.5522 41 33 40.5522 33 40V38.0343L28.9979 34H20.8734L13.817 41ZM10.934 34H9C8.44775 34 8 34.4478 8 35V36.9106L10.934 34Z" fill="#505050"/>
<path fill-rule="evenodd" clip-rule="evenodd" d="M29.9377 25.0081L32.6595 27.7517C32.8683 27.5685 33 27.2996 33 27V22C33 21.9902 32.9999 21.9805 32.9996 21.9707L29.9377 25.0081ZM20.0385 24.9683L16.1018 21H9C8.44775 21 8 21.4478 8 22V27C8 27.5522 8.44775 28 9 28H16.9823L20.0385 24.9683Z" fill="#505050"/>
<rect x="7" y="10.8988" width="5.54" height="46.2753" rx="1" transform="rotate(-44.7285 7 10.8988)" fill="#F4AD59"/>
<rect x="39.2981" y="6.85071" width="5.539" height="46.6762" rx="1" transform="rotate(45.2715 39.2981 6.85071)" fill="#F4AD59"/>
</svg>
